<svg width="40" height="40" viewBox="0 0 40 40" fill="none" xmlns="http://www.w3.org/2000/svg">
<path d="M22.64 6.42C22.9802 6.41927 23.3171 6.48607 23.6312 6.61653C23.9453 6.74699 24.2305 6.93851 24.47 7.17999L25.95 8.7C26.5897 9.33808 27.3494 9.84329 28.1852 10.1865C29.021 10.5298 29.9165 10.7043 30.82 10.7H31.4C31.959 10.7 32.5124 10.8103 33.0287 11.0245C33.545 11.2387 34.014 11.5526 34.4088 11.9483C34.8035 12.344 35.1164 12.8137 35.3294 13.3305C35.5424 13.8473 35.6513 14.401 35.65 14.96V29.17C35.65 30.2972 35.2022 31.3782 34.4052 32.1752C33.6082 32.9722 32.5272 33.42 31.4 33.42H8.67001C7.54284 33.42 6.46183 32.9722 5.6648 32.1752C4.86777 31.3782 4.42001 30.2972 4.42001 29.17V14.94C4.42266 13.8146 4.87159 12.7361 5.66834 11.9413C6.46508 11.1464 7.54457 10.7 8.67001 10.7H9.25001C10.1536 10.7048 11.0492 10.5306 11.8851 10.1873C12.721 9.84404 13.4806 9.33853 14.12 8.7L15.6 7.20999C15.8396 6.96851 16.1247 6.77699 16.4388 6.64653C16.753 6.51607 17.0899 6.44927 17.43 6.45H22.64V6.42ZM22.64 5.03H17.43C16.9039 5.0309 16.3831 5.13559 15.8975 5.33807C15.4118 5.54056 14.9709 5.83685 14.6 6.20999L13.11 7.7C12.6045 8.20884 12.003 8.61227 11.3404 8.88692C10.6778 9.16157 9.96727 9.30199 9.25001 9.3H8.67001C7.92457 9.3 7.18645 9.44699 6.49788 9.73256C5.80931 10.0181 5.18381 10.4367 4.65717 10.9642C4.13054 11.4918 3.71309 12.118 3.42874 12.8071C3.14438 13.4962 2.99869 14.2346 3.00001 14.98V29.19C3.00001 30.6938 3.59738 32.136 4.66071 33.1993C5.72405 34.2626 7.16623 34.86 8.67001 34.86H31.41C32.9138 34.86 34.356 34.2626 35.4193 33.1993C36.4826 32.136 37.08 30.6938 37.08 29.19V14.93C37.08 13.4262 36.4826 11.984 35.4193 10.9207C34.356 9.85737 32.9138 9.26 31.41 9.26H30.82C29.3697 9.25676 27.9792 8.68187 26.95 7.66L25.48 6.17999C25.1079 5.80566 24.6654 5.50868 24.1779 5.30615C23.6905 5.10363 23.1678 4.99958 22.64 5V5.03Z" fill="#4D4D4F"/>
<path d="M20.04 14.23C21.4467 14.228 22.8223 14.6433 23.9928 15.4234C25.1634 16.2034 26.0762 17.3132 26.6159 18.6122C27.1556 19.9112 27.2978 21.3411 27.0246 22.721C26.7514 24.1008 26.075 25.3686 25.0811 26.364C24.0871 27.3593 22.8203 28.0375 21.4408 28.3126C20.0613 28.5878 18.6312 28.4476 17.3314 27.9097C16.0317 27.3719 14.9207 26.4606 14.139 25.2911C13.3573 24.1217 12.94 22.7467 12.94 21.34C12.9426 19.4569 13.6912 17.6514 15.0219 16.3189C16.3525 14.9864 18.1569 14.2353 20.04 14.23ZM20.04 12.81C18.3525 12.808 16.7023 13.3066 15.2983 14.2427C13.8942 15.1788 12.7993 16.5103 12.1522 18.0688C11.505 19.6273 11.3347 21.3427 11.6627 22.998C11.9907 24.6533 12.8023 26.1741 13.9948 27.3681C15.1874 28.562 16.7073 29.3754 18.3622 29.7054C20.0171 30.0353 21.7327 29.867 23.292 29.2217C24.8512 28.5763 26.184 27.483 27.1217 26.0801C28.0595 24.6771 28.56 23.0275 28.56 21.34C28.5613 20.2203 28.3419 19.1113 27.9143 18.0765C27.4867 17.0416 26.8594 16.1012 26.0681 15.309C25.2768 14.5168 24.3371 13.8883 23.3028 13.4595C22.2684 13.0307 21.1597 12.81 20.04 12.81Z" fill="#4D4D4F"/>
</svg>
