<svg width="40" height="40" viewBox="0 0 40 40" fill="none" xmlns="http://www.w3.org/2000/svg">
<path d="M37.437 20.0934C37.1099 21.1122 36.6302 22.0755 36.0144 22.9505C35.3898 23.8547 34.6377 24.6638 33.7817 25.3528L21.1364 35.5848C20.8152 35.854 20.4094 36.001 19.9904 36C19.5775 35.9936 19.1781 35.8512 18.8543 35.5947L6.20894 25.3627C4.4978 24.0013 3.22623 22.1649 2.55364 20.0835C1.88249 17.9637 1.82025 15.6978 2.37398 13.5443C2.92771 11.3908 4.07512 9.43636 5.68535 7.90397C7.17266 6.49749 9.03564 5.55278 11.0486 5.18431C13.0615 4.81583 15.1381 5.03939 17.0267 5.8279C18.1697 6.3224 19.1837 7.07332 19.9904 8.0226C20.7944 7.07042 21.8092 6.31896 22.9542 5.8279C24.8478 5.03103 26.9323 4.803 28.9532 5.17166C30.9742 5.54031 32.8441 6.48971 34.335 7.90397C35.9419 9.44049 37.0848 11.3981 37.6333 13.5534C38.1818 15.7087 38.1138 17.9749 37.437 20.0934Z" fill="#F05161"/>
</svg>
