<svg width="40" height="40" viewBox="0 0 40 40" fill="none" xmlns="http://www.w3.org/2000/svg">
<path d="M20.2181 35.3393C19.8012 35.3365 19.3968 35.1959 19.0681 34.9393L6.27812 24.5793C4.54071 23.2074 3.24669 21.3533 2.55812 19.2493C1.87998 17.1041 1.81853 14.8115 2.38081 12.6331C2.9431 10.4547 4.10646 8.47828 5.73811 6.92932C7.24362 5.50662 9.12938 4.55102 11.1669 4.17829C13.2045 3.80557 15.3065 4.0317 17.2181 4.82931C18.3771 5.32603 19.4043 6.08615 20.2181 7.04931C21.0309 6.08507 22.0584 5.32474 23.2181 4.82931C25.1293 4.02916 27.2319 3.80167 29.27 4.17449C31.3081 4.54732 33.1939 5.50441 34.6981 6.92932C36.3242 8.47564 37.4842 10.4469 38.0463 12.6194C38.6085 14.7918 38.5502 17.0783 37.8781 19.2193C37.1913 21.3189 35.9051 23.1717 34.1781 24.5493L21.3781 34.8993C21.0532 35.1744 20.6437 35.3297 20.2181 35.3393ZM13.0481 5.8993C10.8149 5.90339 8.66805 6.76215 7.04811 8.29931C5.67197 9.60332 4.69147 11.269 4.21919 13.105C3.74691 14.9411 3.80201 16.8731 4.37813 18.6793C4.9498 20.4332 6.02855 21.9783 7.4781 23.1193L20.2681 33.4693L33.0081 23.1193C34.4529 21.9738 35.5305 20.4303 36.1081 18.6793C36.6842 16.8731 36.7393 14.9411 36.267 13.105C35.7948 11.269 34.8143 9.60332 33.4381 8.29931C32.1897 7.12269 30.6264 6.33382 28.9383 6.0285C27.2501 5.72317 25.5096 5.91452 23.9281 6.57931C22.7391 7.13934 21.7234 8.00997 20.9881 9.09931L20.2381 10.0993L19.4881 9.09931C18.7506 8.01829 17.7395 7.15217 16.5581 6.5893C15.4427 6.13794 14.2514 5.90374 13.0481 5.8993Z" fill="#4D4D4F"/>
</svg>
