<svg width="40" height="40" viewBox="0 0 40 40" fill="none" xmlns="http://www.w3.org/2000/svg">
<path d="M11.456 20.0838C11.488 20.7293 11.3257 21.3696 10.9899 21.9219C10.6541 22.4742 10.1603 22.913 9.57242 23.1816C8.98456 23.4502 8.32962 23.5363 7.69231 23.4287C7.05499 23.3211 6.46461 23.0248 5.99751 22.5781C5.53041 22.1313 5.20808 21.5547 5.0722 20.9229C4.93631 20.291 4.99312 19.6328 5.23527 19.0336C5.47743 18.4343 5.89381 17.9215 6.43055 17.5614C6.96729 17.2014 7.59971 17.0106 8.24604 17.0138C8.66575 16.9729 9.08933 17.0231 9.48785 17.161C9.88638 17.2988 10.2505 17.5211 10.5552 17.8125C10.86 18.104 11.0982 18.4578 11.2537 18.8498C11.4091 19.2418 11.4782 19.6627 11.456 20.0838Z" fill="#4D4D4F"/>
<path d="M23.116 20.0838C23.1481 20.7293 22.9857 21.3696 22.6499 21.9219C22.3141 22.4742 21.8203 22.913 21.2324 23.1816C20.6446 23.4502 19.9896 23.5363 19.3523 23.4287C18.715 23.3211 18.1246 23.0248 17.6575 22.5781C17.1904 22.1313 16.8681 21.5547 16.7322 20.9229C16.5963 20.291 16.6531 19.6328 16.8953 19.0336C17.1374 18.4343 17.5538 17.9215 18.0906 17.5614C18.6273 17.2014 19.2597 17.0106 19.906 17.0138C20.3257 16.9729 20.7493 17.0231 21.1479 17.161C21.5464 17.2988 21.9105 17.5211 22.2152 17.8125C22.52 18.104 22.7582 18.4578 22.9137 18.8498C23.0692 19.2418 23.1382 19.6627 23.116 20.0838Z" fill="#4D4D4F"/>
<path d="M34.7761 20.0838C34.8081 20.7293 34.6457 21.3696 34.3099 21.9219C33.9741 22.4742 33.4803 22.913 32.8924 23.1816C32.3046 23.4502 31.6496 23.5363 31.0123 23.4287C30.375 23.3211 29.7846 23.0248 29.3175 22.5781C28.8504 22.1313 28.5281 21.5547 28.3922 20.9229C28.2563 20.291 28.3131 19.6328 28.5553 19.0336C28.7974 18.4343 29.2138 17.9215 29.7506 17.5614C30.2873 17.2014 30.9197 17.0106 31.566 17.0138C31.9858 16.9729 32.4093 17.0231 32.8079 17.161C33.2064 17.2988 33.5705 17.5211 33.8752 17.8125C34.18 18.104 34.4182 18.4578 34.5737 18.8498C34.7292 19.2418 34.7982 19.6627 34.7761 20.0838Z" fill="#4D4D4F"/>
</svg>
