<svg width="24" height="24" viewBox="0 0 24 24" fill="none" xmlns="http://www.w3.org/2000/svg">
<path d="M3 15.45V12.001V8.552C3 7.20527 3.16569 6.33232 3.39805 5.71681C3.62199 5.12364 3.9283 4.71413 4.31304 4.31441C4.71356 3.9293 5.12349 3.62265 5.71691 3.39847C6.33253 3.1659 7.20543 3 8.552 3H15.448C16.7946 3 17.6675 3.1659 18.2831 3.39847C18.8765 3.62265 19.2864 3.92929 19.687 4.3144C20.0717 4.71412 20.378 5.12364 20.6019 5.71681C20.8343 6.33232 21 7.20527 21 8.552V15.45C21 16.7973 20.8343 17.6702 20.602 18.2855C20.3781 18.8785 20.0718 19.2877 19.687 19.6876C19.2865 20.0727 18.8765 20.3793 18.2831 20.6035C17.6675 20.8361 16.7946 21.002 15.448 21.002H8.552C7.20543 21.002 6.33253 20.8361 5.71691 20.6035C5.1235 20.3794 4.71356 20.0727 4.31304 19.6876C3.92818 19.2878 3.62193 18.8785 3.39803 18.2855C3.1657 17.6702 3 16.7973 3 15.45Z" fill="#262626" stroke="#262626" stroke-width="2" stroke-linecap="round" stroke-linejoin="round"/>
<path fill-rule="evenodd" clip-rule="evenodd" d="M9.763 17.664C9.62487 17.5842 9.51019 17.4695 9.43049 17.3314C9.35079 17.1932 9.30889 17.0365 9.309 16.877V11.63C9.30881 11.4703 9.3507 11.3134 9.43045 11.175C9.5102 11.0366 9.625 10.9217 9.76329 10.8418C9.90157 10.7619 10.0585 10.7199 10.2182 10.7199C10.3779 10.72 10.5347 10.7621 10.673 10.842L15.218 13.466C15.3563 13.5457 15.4712 13.6605 15.5511 13.7988C15.6309 13.937 15.673 14.0938 15.673 14.2535C15.673 14.4132 15.6309 14.57 15.5511 14.7082C15.4712 14.8465 15.3563 14.9613 15.218 15.041L10.673 17.665C10.5347 17.7449 10.3777 17.7869 10.218 17.7869C10.0583 17.7869 9.90134 17.7449 9.763 17.665V17.664Z" fill="white"/>
<path d="M2.04901 7.002H21.95" stroke="white" stroke-width="2" stroke-linejoin="round"/>
<path d="M13.504 2.00101L16.362 7.00201" stroke="white" stroke-width="2" stroke-linecap="round" stroke-linejoin="round"/>
<path d="M7.20697 2.11L10.002 7.002" stroke="white" stroke-width="2" stroke-linecap="round" stroke-linejoin="round"/>
</svg>
