<svg width="40" height="40" viewBox="0 0 40 40" fill="none" xmlns="http://www.w3.org/2000/svg">
<path d="M33.9001 7.71V33.44C33.9036 33.8179 33.7966 34.1887 33.5923 34.5067C33.388 34.8247 33.0953 35.0761 32.7501 35.23C32.4914 35.3553 32.2075 35.4203 31.9201 35.42C31.4503 35.4153 30.9971 35.2454 30.6401 34.94L20.4501 26.2L10.2601 34.94C9.90302 35.2454 9.44987 35.4153 8.98006 35.42C8.69259 35.4203 8.40881 35.3553 8.15008 35.23C7.80486 35.0761 7.51209 34.8247 7.30779 34.5067C7.10349 34.1887 6.99656 33.8179 7.00008 33.44V7.71C7.00008 6.99126 7.28559 6.30196 7.79382 5.79374C8.30204 5.28552 8.99134 5 9.71008 5H31.1901C31.9088 5 32.5981 5.28552 33.1063 5.79374C33.6145 6.30196 33.9001 6.99126 33.9001 7.71Z" fill="#4D4D4F"/>
</svg>
