<svg width="24" height="24" viewBox="0 0 24 24" fill="none" xmlns="http://www.w3.org/2000/svg">
<path d="M17.5 10.5C17.5 11.8845 17.0895 13.2378 16.3203 14.389C15.5511 15.5401 14.4579 16.4373 13.1788 16.9672C11.8997 17.497 10.4922 17.6356 9.13437 17.3655C7.7765 17.0954 6.52922 16.4287 5.55026 15.4497C4.57129 14.4708 3.9046 13.2235 3.63451 11.8656C3.36441 10.5078 3.50303 9.1003 4.03285 7.82122C4.56266 6.54213 5.45987 5.44888 6.61101 4.67971C7.76216 3.91054 9.11553 3.5 10.5 3.5C12.3565 3.5 14.137 4.2375 15.4498 5.55025C16.7625 6.86301 17.5 8.64348 17.5 10.5Z" stroke="#262626" stroke-width="3" stroke-linecap="round" stroke-linejoin="round"/>
<path d="M16.511 16.511L22 22" stroke="#262626" stroke-width="3" stroke-linecap="round" stroke-linejoin="round"/>
</svg>
