<svg width="40" height="40" viewBox="0 0 40 40" fill="none" xmlns="http://www.w3.org/2000/svg">
<path d="M19.73 6.43001C20.0315 6.42636 20.3224 6.54127 20.54 6.75L22.75 8.75C23.5574 9.52501 24.6309 9.96155 25.75 9.97001H32.33C32.5304 9.96736 32.7294 10.0044 32.9155 10.079C33.1016 10.1536 33.2711 10.2642 33.4142 10.4046C33.5574 10.5449 33.6713 10.7122 33.7495 10.8967C33.8277 11.0813 33.8687 11.2796 33.87 11.48V31.91C33.8674 32.1096 33.8255 32.3068 33.7467 32.4902C33.6679 32.6736 33.5537 32.8397 33.4107 32.979C33.2677 33.1183 33.0986 33.228 32.9132 33.302C32.7278 33.3759 32.5296 33.4127 32.33 33.41H7.06998C6.87036 33.4127 6.67218 33.3759 6.48676 33.302C6.30133 33.228 6.13229 33.1183 5.98929 32.979C5.84628 32.8397 5.73213 32.6736 5.65332 32.4902C5.57451 32.3068 5.53261 32.1096 5.53 31.91V11.49C5.5313 11.2895 5.57223 11.0913 5.65045 10.9068C5.72868 10.7222 5.84264 10.5549 5.98578 10.4146C6.12892 10.2742 6.29839 10.1636 6.48447 10.089C6.67054 10.0144 6.86953 9.97737 7.06998 9.98001H13.65C14.7691 9.97156 15.8426 9.53502 16.65 8.76001L18.86 6.76001C19.0745 6.5528 19.3617 6.43791 19.66 6.44001L19.73 6.43001ZM19.66 5.02001C18.9979 5.0214 18.3613 5.27534 17.88 5.73001L15.64 7.73002C15.0863 8.26368 14.3489 8.56437 13.58 8.57001H7C6.21633 8.5698 5.46369 8.87624 4.90305 9.4238C4.34241 9.97136 4.01829 10.7165 4 11.5V31.91C4.00257 32.2995 4.0825 32.6846 4.23517 33.043C4.38784 33.4013 4.61019 33.7257 4.88931 33.9974C5.16843 34.2691 5.49875 34.4826 5.86108 34.6255C6.22342 34.7685 6.61057 34.838 7 34.83H32.33C32.7194 34.838 33.1065 34.7685 33.4689 34.6255C33.8312 34.4826 34.1616 34.2691 34.4407 33.9974C34.7198 33.7257 34.9421 33.4013 35.0948 33.043C35.2475 32.6846 35.3274 32.2995 35.33 31.91V11.49C35.3117 10.7066 34.9876 9.96135 34.4269 9.41379C33.8663 8.86623 33.1137 8.5598 32.33 8.56002H25.75C24.9811 8.55438 24.2436 8.25367 23.69 7.72001L21.49 5.71001C21.0062 5.25296 20.3655 4.99885 19.7 5L19.66 5.02001Z" fill="#4D4D4F"/>
<path fill-rule="evenodd" clip-rule="evenodd" d="M19.74 14.95C19.0375 14.95 18.3507 15.1585 17.7667 15.549C17.1827 15.9395 16.7277 16.4945 16.4593 17.1438C16.1909 17.7931 16.1212 18.5074 16.259 19.1963C16.3967 19.8852 16.7358 20.5177 17.2333 21.0138C17.7308 21.5099 18.3643 21.8472 19.0536 21.983C19.7429 22.1189 20.457 22.0471 21.1055 21.7769C21.754 21.5067 22.3077 21.0501 22.6966 20.465C23.0854 19.8799 23.292 19.1926 23.29 18.49C23.2873 17.5502 22.9122 16.6498 22.2467 15.9862C21.5812 15.3226 20.6798 14.95 19.74 14.95ZM19.74 20.63C19.3187 20.63 18.9069 20.5051 18.5567 20.271C18.2064 20.037 17.9334 19.7043 17.7721 19.3151C17.6109 18.9259 17.5687 18.4976 17.6509 18.0845C17.7331 17.6713 17.936 17.2918 18.2339 16.9939C18.5318 16.696 18.9113 16.4931 19.3245 16.4109C19.7377 16.3287 20.1659 16.3709 20.5551 16.5322C20.9443 16.6934 21.277 16.9664 21.511 17.3166C21.7451 17.6669 21.87 18.0787 21.87 18.5C21.8674 19.0641 21.6421 19.6044 21.2432 20.0032C20.8444 20.4021 20.3041 20.6274 19.74 20.63Z" fill="#4D4D4F"/>
<path fill-rule="evenodd" clip-rule="evenodd" d="M23.81 23.48H15.66C15.0622 23.4639 14.4824 23.6853 14.0476 24.0957C13.6127 24.5062 13.3583 25.0723 13.34 25.67V27.71H14.76V25.57C14.76 25.3817 14.8348 25.2011 14.968 25.068C15.1011 24.9348 15.2817 24.86 15.47 24.86H23.99C24.1783 24.86 24.3589 24.9348 24.492 25.068C24.6252 25.2011 24.7 25.3817 24.7 25.57V27.71H26.13V25.71C26.1261 25.4106 26.0628 25.115 25.9437 24.8403C25.8246 24.5656 25.6522 24.3173 25.4363 24.1098C25.2205 23.9024 24.9656 23.7399 24.6864 23.6317C24.4072 23.5236 24.1093 23.472 23.81 23.48Z" fill="#4D4D4F"/>
</svg>
