<svg width="24" height="24" viewBox="0 0 24 24" fill="none" xmlns="http://www.w3.org/2000/svg">
<g clip-path="url(#clip0_1_58)">
<path d="M12 1.505C13.7268 1.50479 15.427 1.93049 16.95 2.74436C18.473 3.55824 19.7718 4.73518 20.7313 6.17092C21.6907 7.60666 22.2813 9.25687 22.4506 10.9754C22.62 12.6939 22.3628 14.4276 21.702 16.023C21.0412 17.6184 19.9972 19.0262 18.6623 20.1217C17.3274 21.2171 15.743 21.9665 14.0493 22.3033C12.3557 22.6401 10.6051 22.5541 8.95265 22.0527C7.30022 21.5513 5.79694 20.6502 4.57599 19.429" stroke="#262626" stroke-width="2" stroke-linecap="round" stroke-linejoin="round"/>
<path d="M8.89301 15.108L12 12L12.012 12.012V5.793" stroke="#262626" stroke-width="2" stroke-linecap="round" stroke-linejoin="round"/>
<path d="M7.23999 3.776C7.86131 3.776 8.36499 3.27232 8.36499 2.651C8.36499 2.02968 7.86131 1.526 7.23999 1.526C6.61867 1.526 6.11499 2.02968 6.11499 2.651C6.11499 3.27232 6.61867 3.776 7.23999 3.776Z" fill="#262626"/>
<path d="M3.51501 6.955C4.13634 6.955 4.64001 6.45132 4.64001 5.83C4.64001 5.20868 4.13634 4.705 3.51501 4.705C2.89369 4.705 2.39001 5.20868 2.39001 5.83C2.39001 6.45132 2.89369 6.955 3.51501 6.955Z" fill="#262626"/>
<path d="M1.63599 11.478C2.25731 11.478 2.76099 10.9743 2.76099 10.353C2.76099 9.73168 2.25731 9.228 1.63599 9.228C1.01467 9.228 0.510986 9.73168 0.510986 10.353C0.510986 10.9743 1.01467 11.478 1.63599 11.478Z" fill="#262626"/>
<path d="M2.01001 16.36C2.63133 16.36 3.13501 15.8563 3.13501 15.235C3.13501 14.6137 2.63133 14.11 2.01001 14.11C1.38869 14.11 0.88501 14.6137 0.88501 15.235C0.88501 15.8563 1.38869 16.36 2.01001 16.36Z" fill="#262626"/>
</g>
<defs>
<clipPath id="clip0_1_58">
<rect width="24" height="24" fill="white"/>
</clipPath>
</defs>
</svg>
